<mxfile host="app.diagrams.net" modified="2024-11-19T10:00:11.650Z" agent="Mozilla/5.0 (Windows NT 10.0; Win64; x64) AppleWebKit/537.36 (KHTML, like Gecko) Chrome/129.0.0.0 Safari/537.36" etag="fcxGVGjGm44ObZzvA3wc" version="21.5.0" type="github">
  <diagram name="Pagina-1" id="VI1yULTJIAVTf_ioLrvo">
    <mxGraphModel dx="2074" dy="1239" grid="1" gridSize="10" guides="1" tooltips="1" connect="1" arrows="1" fold="1" page="1" pageScale="1" pageWidth="827" pageHeight="1169" math="0" shadow="0">
      <root>
        <mxCell id="0" />
        <mxCell id="1" parent="0" />
        <mxCell id="EL8D4Io_Ni5jKileI8jG-1" value="" style="rhombus;whiteSpace=wrap;html=1;" vertex="1" parent="1">
          <mxGeometry x="370" y="590" width="80" height="80" as="geometry" />
        </mxCell>
        <mxCell id="EL8D4Io_Ni5jKileI8jG-2" value="" style="whiteSpace=wrap;html=1;aspect=fixed;" vertex="1" parent="1">
          <mxGeometry x="370" y="590" width="80" height="80" as="geometry" />
        </mxCell>
        <mxCell id="EL8D4Io_Ni5jKileI8jG-3" value="" style="whiteSpace=wrap;html=1;aspect=fixed;" vertex="1" parent="1">
          <mxGeometry x="370" y="590" width="80" height="80" as="geometry" />
        </mxCell>
        <mxCell id="EL8D4Io_Ni5jKileI8jG-4" value="" style="shape=document;whiteSpace=wrap;html=1;boundedLbl=1;" vertex="1" parent="1">
          <mxGeometry x="280" y="90" width="120" height="80" as="geometry" />
        </mxCell>
        <mxCell id="EL8D4Io_Ni5jKileI8jG-5" value="" style="shape=flexArrow;endArrow=classic;html=1;rounded=0;" edge="1" parent="1">
          <mxGeometry width="50" height="50" relative="1" as="geometry">
            <mxPoint x="210" y="450" as="sourcePoint" />
            <mxPoint x="620" y="120" as="targetPoint" />
          </mxGeometry>
        </mxCell>
      </root>
    </mxGraphModel>
  </diagram>
</mxfile>
